PathFileType  4	(X/Y/Z) C:\Users\hpl\Documents\MyRepositories\mocap-processing\Data\treadmill\running\
DataRate	CameraRate	NumFrames	NumMarkers	Units	OrigDataRate	OrigDataStartFrame	OrigNumFrames
  200.0		  200.0		    7		     46		 mm	  200.0	      99	    785
Frame#	Time	r_knee			r_shank_antsup			r_ankle			r_calc			r_5meta			r_toe			L_knee			L_shank_antsup			L_ankle			L_calc			L_5meta			L_toe			r_sh2			r_sh3			r_sh4			L_sh2			L_sh3			r_thigh1			r_thigh2			r_thigh3			r_thigh4			r_thigh5			L_thigh1			L_thigh2			L_thigh3			L_thigh4			r.ASIS			r.PSIS			L.ASIS			L.PSIS			C7			R_Shoulder			L_Shoulder			Sternum			R_humerus			R_elbow_med			R_elbow_lat			R_forearm			R_wrist_radius			R_wrist_ulna			L_humerus			L_elbow_med			L_elbow_lat			L_forearm			L_wrist_radius			L_wrist_ulna			
		X1	Y1	Z1	X2	Y2	Z2	X3	Y3	Z3	X4	Y4	Z4	X5	Y5	Z5	X6	Y6	Z6	X7	Y7	Z7	X8	Y8	Z8	X9	Y9	Z9	X10	Y10	Z10	X11	Y11	Z11	X12	Y12	Z12	X13	Y13	Z13	X14	Y14	Z14	X15	Y15	Z15	X16	Y16	Z16	X17	Y17	Z17	X18	Y18	Z18	X19	Y19	Z19	X20	Y20	Z20	X21	Y21	Z21	X22	Y22	Z22	X23	Y23	Z23	X24	Y24	Z24	X25	Y25	Z25	X26	Y26	Z26	X27	Y27	Z27	X28	Y28	Z28	X29	Y29	Z29	X30	Y30	Z30	X31	Y31	Z31	X32	Y32	Z32	X33	Y33	Z33	X34	Y34	Z34	X35	Y35	Z35	X36	Y36	Z36	X37	Y37	Z37	X38	Y38	Z38	X39	Y39	Z39	X40	Y40	Z40	X41	Y41	Z41	X42	Y42	Z42	X43	Y43	Z43	X44	Y44	Z44	X45	Y45	Z45	X46	Y46	Z46	

99	0.49000	970.481	158.755	545.273	1003.565	157.348	426.167	989.552	223.644	97.854	921.560	295.175	76.197	1102.893	196.112	30.074	1150.390	253.071	58.810	767.392	470.076	501.130	655.504	470.737	467.048	352.898	438.697	525.630	342.301	393.944	591.705	252.874	436.058	390.582	269.919	362.630	362.950	1006.510	175.168	307.998	930.234	147.660	421.391	924.596	178.381	309.630	662.188	487.632	555.746	540.604	469.567	555.601	975.100	133.223	781.505	1006.886	160.622	673.450	978.425	142.456	627.181	872.844	108.544	738.413	911.574	140.928	632.404	892.226	464.003	699.385	866.237	452.262	560.940	782.676	510.053	717.473	760.133	477.989	582.710	882.552	167.104	1010.466	681.728	256.766	1058.563	892.415	433.022	1010.231	687.899	363.081	1059.247	804.813	301.355	1550.578	796.879	112.628	1511.642	876.364	473.244	1530.036	948.401	272.827	1447.246	677.263	39.705	1327.641	552.129	118.849	1250.545	546.298	34.200	1282.189	683.916	15.825	1173.216	771.149	22.273	1094.800	732.462	0.535	1065.316	809.234	592.601	1312.688	669.639	563.421	1223.562	723.826	638.792	1259.476	855.266	569.567	1181.764	928.476	478.289	1173.865	922.347	516.414	1113.713
100	0.49500	968.506	159.181	540.830	997.790	158.300	419.794	970.583	227.184	99.192	899.120	296.547	72.520	1082.212	198.531	31.884	1128.721	258.794	54.222	778.410	471.689	496.562	666.641	472.115	463.593	365.303	439.471	528.098	354.959	394.254	594.059	264.909	438.291	393.728	281.305	364.560	365.583	996.090	177.209	301.857	924.678	147.077	417.210	914.330	177.865	306.035	674.806	488.300	552.442	553.413	470.179	553.633	973.985	133.547	777.095	1006.523	158.775	669.168	977.016	142.341	622.979	871.636	108.041	733.917	910.782	141.147	628.140	897.302	465.087	696.471	874.860	453.922	557.321	787.107	511.332	712.454	768.606	478.432	576.223	881.181	166.581	1006.849	680.703	257.339	1054.312	890.597	433.011	1005.321	686.239	363.015	1054.801	804.118	300.635	1546.235	797.292	111.338	1506.259	875.212	472.894	1526.077	948.236	273.029	1442.639	680.951	36.731	1319.693	555.746	114.090	1241.192	550.793	29.133	1273.006	690.126	12.739	1166.182	778.565	20.219	1089.349	740.526	-1.873	1059.140	804.942	591.195	1308.617	665.154	561.098	1220.808	719.489	637.057	1256.148	850.729	570.297	1175.782	925.036	480.132	1165.791	917.569	518.709	1106.185
101	0.50000	966.311	160.040	535.943	992.314	160.353	413.025	949.500	230.929	98.263	877.405	302.437	68.551	1059.917	200.337	32.328	1107.317	260.649	52.919	789.522	473.736	492.158	678.339	473.263	460.262	378.173	440.166	529.736	367.682	394.771	595.541	277.603	440.202	395.537	293.671	366.720	367.070	985.165	181.081	295.597	919.666	146.215	413.012	903.924	178.926	303.218	687.533	489.290	549.164	566.039	471.488	552.087	972.427	133.843	772.424	1005.620	157.213	664.383	975.337	142.029	618.410	870.063	107.538	729.111	909.604	140.973	623.446	902.159	466.662	693.297	883.500	455.774	554.156	791.898	511.316	706.470	777.012	479.180	570.554	880.312	166.205	1003.378	679.355	257.550	1050.186	888.762	432.980	1000.115	684.694	362.622	1050.162	803.212	299.827	1541.411	797.909	110.050	1500.918	873.566	473.003	1521.838	948.110	273.281	1437.720	685.082	33.831	1311.562	559.709	108.962	1231.598	555.315	24.290	1263.534	696.767	9.660	1158.917	786.098	18.419	1083.805	749.034	-4.200	1052.962	800.718	589.665	1304.393	662.073	559.195	1217.454	715.129	635.424	1252.858	846.141	571.071	1169.649	921.579	481.813	1157.506	912.413	521.086	1098.443
102	0.50500	964.139	161.449	530.729	988.394	162.943	406.854	926.566	235.818	97.427	855.415	305.705	67.644	1037.687	201.520	32.465	1085.807	261.591	52.198	800.841	475.394	488.285	690.474	474.747	457.096	391.493	441.936	531.038	380.609	395.326	596.025	290.856	442.104	396.026	306.446	368.943	367.124	975.132	185.585	289.861	916.228	146.486	408.958	894.365	181.340	301.540	700.577	490.704	545.722	579.302	472.895	550.042	969.932	133.355	767.180	1003.880	155.913	659.408	973.020	141.629	613.237	867.848	106.508	723.931	907.587	141.579	618.670	907.063	467.794	691.466	893.173	457.511	552.147	796.013	512.187	701.610	785.384	480.136	565.472	879.218	166.048	999.781	677.976	257.552	1046.225	886.812	432.879	994.785	683.080	362.259	1045.711	802.389	299.017	1536.733	798.811	108.708	1495.522	872.118	472.943	1517.606	947.931	273.578	1432.694	689.431	30.774	1303.224	563.858	103.982	1221.921	560.375	19.292	1254.089	703.557	6.553	1151.710	793.897	16.571	1078.254	757.593	-6.428	1046.825	796.352	588.064	1300.112	658.152	557.340	1214.234	710.499	633.951	1249.410	841.424	571.979	1163.344	917.735	483.844	1148.973	907.372	523.653	1090.620
103	0.51000	962.126	163.055	525.530	985.692	168.175	400.446	906.777	239.406	98.487	834.071	308.088	67.858	1015.804	202.649	32.823	1064.989	262.677	50.744	812.682	477.041	484.733	702.993	476.010	453.657	404.672	442.729	530.866	393.365	395.817	595.465	304.704	444.460	395.725	320.012	371.097	366.143	966.622	190.802	285.053	914.862	147.838	406.387	886.452	185.020	301.065	713.899	492.115	542.130	592.774	474.227	548.325	966.851	132.252	761.660	1000.438	155.534	654.022	969.724	141.827	607.641	864.981	105.261	718.195	904.086	142.911	613.940	911.953	469.297	689.796	901.454	460.031	549.565	800.547	512.953	697.313	795.016	480.684	560.178	877.837	166.256	996.030	676.140	257.200	1042.537	884.644	432.658	989.433	681.303	361.830	1041.516	801.296	298.274	1531.875	799.884	107.127	1490.307	870.704	472.735	1513.397	947.868	273.959	1427.603	694.051	28.190	1294.724	568.307	98.876	1212.352	565.782	13.994	1244.431	710.882	3.593	1144.482	802.001	14.741	1072.790	766.499	-8.725	1040.617	791.634	586.333	1295.658	654.310	555.333	1210.888	705.997	632.303	1245.920	836.527	572.926	1156.899	913.813	485.728	1140.481	901.716	526.253	1082.559
104	0.51500	959.907	165.010	520.982	983.902	173.426	395.793	888.137	242.418	99.466	813.494	311.291	69.121	993.684	203.307	32.928	1044.021	262.737	50.592	824.795	478.623	481.639	715.459	477.698	450.919	417.936	443.245	529.414	406.088	396.240	593.875	319.057	446.491	394.773	334.133	373.210	363.972	959.732	196.483	281.815	914.217	150.821	404.475	880.033	187.170	300.595	727.701	492.846	538.554	607.037	476.398	545.899	963.245	129.479	756.085	995.640	155.255	648.408	964.742	140.822	602.003	860.484	106.070	713.879	899.187	144.460	610.145	916.813	470.825	688.938	911.508	461.899	549.140	804.639	513.766	693.695	804.286	481.656	556.039	876.194	166.552	992.535	674.001	256.604	1039.029	882.296	432.318	983.891	679.337	361.453	1037.292	800.203	297.528	1527.229	801.204	105.640	1485.180	869.167	472.863	1509.324	947.816	274.397	1422.407	698.959	25.559	1286.223	573.063	93.707	1202.620	571.531	8.824	1235.004	718.528	0.639	1137.266	810.243	13.061	1067.361	775.605	-10.907	1034.497	786.754	584.417	1291.254	650.487	553.103	1207.511	701.399	630.525	1242.363	831.503	574.000	1150.423	909.542	487.952	1132.015	895.971	528.962	1074.518
105	0.52000	957.590	166.574	516.798	980.242	178.819	393.755	868.231	244.635	100.579	793.099	313.237	70.265	971.933	204.433	33.140	1022.493	263.336	49.959	837.140	480.022	479.175	728.939	478.914	448.037	431.200	444.285	527.159	418.498	396.540	591.312	333.847	448.524	391.781	348.919	375.392	360.523	952.129	200.745	280.433	911.270	153.433	404.611	873.084	187.156	301.320	741.257	494.325	535.789	619.653	476.649	543.342	961.197	125.055	750.679	991.043	154.150	643.111	958.802	140.918	596.966	855.774	108.189	710.415	893.827	146.528	606.807	921.803	472.084	689.135	920.299	463.444	548.768	809.351	514.429	690.911	813.312	483.219	553.168	874.399	166.995	989.202	671.629	255.715	1035.864	880.294	431.633	978.743	677.587	361.091	1033.414	799.060	296.645	1522.739	802.708	104.096	1480.303	866.487	472.808	1505.594	947.778	274.910	1417.288	704.339	23.124	1277.800	578.469	88.105	1192.805	577.589	3.626	1225.576	726.500	-2.026	1130.278	818.529	11.232	1062.279	784.981	-13.083	1028.492	781.645	582.405	1287.000	646.356	551.119	1204.458	696.308	629.201	1239.324	826.274	575.173	1143.964	905.112	490.296	1123.531	889.889	531.672	1066.532
